<svg xmlns="http://www.w3.org/2000/svg" xmlns:xlink="http://www.w3.org/1999/xlink" width="500" zoomAndPan="magnify"
    viewBox="0 0 375 374.999991" height="500" preserveAspectRatio="xMidYMid meet" version="1.0">
    <defs>
        <filter x="0%" y="0%" width="100%" height="100%" id="30c38744df">
            <feColorMatrix values="0 0 0 0 1 0 0 0 0 1 0 0 0 0 1 0 0 0 1 0" color-interpolation-filters="sRGB" />
        </filter>
        <g />
        <clipPath id="f7b51909fb">
            <path d="M 13 135.113281 L 116 135.113281 L 116 236 L 13 236 Z M 13 135.113281 " clip-rule="nonzero" />
        </clipPath>
        <clipPath id="cb184dbc40">
            <path
                d="M 42.136719 168.175781 L 86.195312 168.175781 L 86.195312 206.859375 L 42.136719 206.859375 Z M 42.136719 168.175781 "
                clip-rule="nonzero" />
        </clipPath>
        <clipPath id="f224909ff1">
            <path
                d="M 42.136719 179.578125 C 42.136719 191.851562 64.164062 206.824219 64.164062 206.824219 C 64.164062 206.824219 86.097656 191.746094 86.195312 179.578125 C 86.195312 173.296875 81.074219 168.175781 74.792969 168.175781 C 69.964844 168.175781 65.804688 171.269531 64.164062 175.515625 C 62.527344 171.269531 58.367188 168.175781 53.539062 168.175781 C 47.253906 168.175781 42.136719 173.296875 42.136719 179.578125 "
                clip-rule="nonzero" />
        </clipPath>
        <mask id="62650c9de1">
            <g filter="url(#30c38744df)">
                <rect x="-37.5" width="450" fill="#000000" y="-37.499999" height="449.999989" fill-opacity="0.8196" />
            </g>
        </mask>
        <clipPath id="1785b14798">
            <path
                d="M 0.632812 1.066406 L 35.699219 1.066406 L 35.699219 31.851562 L 0.632812 31.851562 Z M 0.632812 1.066406 "
                clip-rule="nonzero" />
        </clipPath>
        <clipPath id="3e13c5ff01">
            <path
                d="M 0.632812 10.140625 C 0.632812 19.910156 18.164062 31.824219 18.164062 31.824219 C 18.164062 31.824219 35.621094 19.824219 35.699219 10.140625 C 35.699219 5.140625 31.625 1.066406 26.621094 1.066406 C 22.78125 1.066406 19.46875 3.527344 18.164062 6.90625 C 16.859375 3.527344 13.550781 1.066406 9.707031 1.066406 C 4.707031 1.066406 0.632812 5.140625 0.632812 10.140625 "
                clip-rule="nonzero" />
        </clipPath>
        <clipPath id="e10b6451c6">
            <rect x="0" width="36" y="0" height="32" />
        </clipPath>
    </defs>
    <path fill="#1b9ce4"
        d="M 31.527344 182.414062 C 31.527344 165.160156 45.511719 151.175781 62.765625 151.175781 C 70.652344 151.175781 77.855469 154.101562 83.351562 158.921875 C 77.375 149.652344 66.953125 143.511719 55.101562 143.511719 C 36.550781 143.511719 21.507812 158.554688 21.507812 177.109375 C 21.507812 193.226562 32.859375 206.691406 48.007812 209.949219 C 38.199219 204.683594 31.527344 194.328125 31.527344 182.414062 "
        fill-opacity="1" fill-rule="nonzero" />
    <g clip-path="url(#f7b51909fb)">
        <path fill="#183e9f"
            d="M 95.027344 135.34375 C 94.410156 135.113281 94.136719 135.757812 94.03125 136.621094 C 93.828125 138.3125 94.503906 139.984375 95.785156 141.109375 C 109.175781 152.84375 106.578125 181.597656 97.824219 179.882812 C 92.078125 178.757812 98.199219 161.675781 93.40625 161.09375 C 90.226562 160.707031 87.398438 168.625 87.597656 179.066406 C 87.714844 185.042969 89.632812 189.972656 91.320312 194.25 C 93.761719 200.449219 91.515625 207.542969 85.902344 211.128906 C 68.035156 222.53125 44.035156 220.429688 28.425781 204.820312 C 20.179688 196.574219 15.707031 185.988281 15 175.195312 C 11.554688 191.175781 16.054688 208.519531 28.5 220.917969 C 44.191406 236.542969 69.246094 239.796875 88.421875 228.722656 C 106.625 218.210938 114.238281 196.578125 115.324219 176.464844 C 116.699219 150.882812 102.019531 137.976562 95.027344 135.34375 Z M 92.519531 149.34375 C 99.476562 155.457031 102.105469 166.167969 101.796875 174.792969 C 102.890625 172.117188 103.484375 168.199219 103.347656 164.007812 C 103.167969 158.402344 101.832031 153.152344 99.601562 148.898438 C 96.714844 146.121094 93.871094 144.363281 91.742188 143.5625 C 91.109375 143.324219 90.839844 144.003906 90.738281 144.898438 C 90.550781 146.582031 91.25 148.226562 92.519531 149.34375 "
            fill-opacity="1" fill-rule="nonzero" />
    </g>
    <g clip-path="url(#cb184dbc40)">
        <g clip-path="url(#f224909ff1)">
            <path fill="#183e9f"
                d="M 42.136719 168.175781 L 86.195312 168.175781 L 86.195312 206.859375 L 42.136719 206.859375 Z M 42.136719 168.175781 "
                fill-opacity="1" fill-rule="nonzero" />
        </g>
    </g>
    <g mask="url(#62650c9de1)">
        <g transform="matrix(1, 0, 0, 1, 46, 175)">
            <g clip-path="url(#e10b6451c6)">
                <g clip-path="url(#1785b14798)">
                    <g clip-path="url(#3e13c5ff01)">
                        <path fill="#54afe6"
                            d="M 0.632812 1.066406 L 35.699219 1.066406 L 35.699219 31.851562 L 0.632812 31.851562 Z M 0.632812 1.066406 "
                            fill-opacity="1" fill-rule="nonzero" />
                    </g>
                </g>
            </g>
        </g>
    </g>
    <g fill="#183172" fill-opacity="1">
        <g transform="translate(131.719115, 195.118665)">
            <g>
                <path
                    d="M 29.84375 -16.015625 C 29.84375 -11.097656 28.335938 -7.148438 25.328125 -4.171875 C 22.546875 -1.390625 18.890625 0 14.359375 0 L 2.9375 0 L 2.9375 -29.453125 C 2.9375 -29.484375 2.828125 -29.914062 2.609375 -30.75 C 2.390625 -31.582031 2.265625 -32.039062 2.234375 -32.125 L 14.390625 -32.125 C 19.222656 -32.125 23.003906 -30.65625 25.734375 -27.71875 C 28.472656 -24.78125 29.84375 -20.878906 29.84375 -16.015625 Z M 23.34375 -15.84375 C 23.34375 -17.945312 23.050781 -19.863281 22.46875 -21.59375 C 21.882812 -23.320312 20.867188 -24.785156 19.421875 -25.984375 C 17.972656 -27.179688 16.164062 -27.78125 14 -27.78125 L 9 -27.78125 L 9 -4.34375 L 14.09375 -4.34375 C 15.695312 -4.34375 17.113281 -4.65625 18.34375 -5.28125 C 19.570312 -5.914062 20.535156 -6.78125 21.234375 -7.875 C 21.941406 -8.976562 22.46875 -10.191406 22.8125 -11.515625 C 23.164062 -12.847656 23.34375 -14.289062 23.34375 -15.84375 Z M 23.34375 -15.84375 " />
            </g>
        </g>
    </g>
    <g fill="#183172" fill-opacity="1">
        <g transform="translate(162.393524, 195.118665)">
            <g>
                <path
                    d="M 31.515625 -16.015625 C 31.515625 -11.191406 30.125 -7.234375 27.34375 -4.140625 C 24.5625 -1.054688 20.785156 0.484375 16.015625 0.484375 C 11.242188 0.484375 7.519531 -1.070312 4.84375 -4.1875 C 2.164062 -7.300781 0.828125 -11.273438 0.828125 -16.109375 C 0.828125 -20.960938 2.171875 -24.925781 4.859375 -28 C 7.554688 -31.070312 11.289062 -32.609375 16.0625 -32.609375 C 20.945312 -32.609375 24.742188 -31.078125 27.453125 -28.015625 C 30.160156 -24.960938 31.515625 -20.960938 31.515625 -16.015625 Z M 25.015625 -15.84375 C 25.015625 -17.394531 24.867188 -18.863281 24.578125 -20.25 C 24.285156 -21.644531 23.816406 -22.976562 23.171875 -24.25 C 22.523438 -25.519531 21.59375 -26.535156 20.375 -27.296875 C 19.164062 -28.054688 17.742188 -28.4375 16.109375 -28.4375 C 14.492188 -28.4375 13.085938 -28.078125 11.890625 -27.359375 C 10.691406 -26.648438 9.769531 -25.6875 9.125 -24.46875 C 8.476562 -23.25 8.007812 -21.957031 7.71875 -20.59375 C 7.425781 -19.238281 7.28125 -17.800781 7.28125 -16.28125 C 7.28125 -14.726562 7.425781 -13.253906 7.71875 -11.859375 C 8.007812 -10.472656 8.476562 -9.144531 9.125 -7.875 C 9.769531 -6.601562 10.695312 -5.585938 11.90625 -4.828125 C 13.125 -4.066406 14.554688 -3.6875 16.203125 -3.6875 C 17.804688 -3.6875 19.207031 -4.046875 20.40625 -4.765625 C 21.601562 -5.484375 22.523438 -6.445312 23.171875 -7.65625 C 23.816406 -8.875 24.285156 -10.160156 24.578125 -11.515625 C 24.867188 -12.878906 25.015625 -14.320312 25.015625 -15.84375 Z M 25.015625 -15.84375 " />
            </g>
        </g>
    </g>
    <g fill="#183172" fill-opacity="1">
        <g transform="translate(194.735498, 195.118665)">
            <g>
                <path
                    d="M 26.859375 -2.71875 C 25.015625 -1.582031 23.296875 -0.753906 21.703125 -0.234375 C 20.109375 0.273438 18.285156 0.53125 16.234375 0.53125 C 11.296875 0.53125 7.5 -1.019531 4.84375 -4.125 C 2.195312 -7.226562 0.875 -11.28125 0.875 -16.28125 C 0.875 -21.050781 2.265625 -24.988281 5.046875 -28.09375 C 7.828125 -31.195312 11.570312 -32.75 16.28125 -32.75 C 18.09375 -32.75 19.992188 -32.484375 21.984375 -31.953125 C 23.972656 -31.421875 25.539062 -30.644531 26.6875 -29.625 L 23.53125 -25.59375 C 22.738281 -26.46875 21.679688 -27.164062 20.359375 -27.6875 C 19.046875 -28.21875 17.757812 -28.484375 16.5 -28.484375 C 14.332031 -28.484375 12.539062 -27.867188 11.125 -26.640625 C 9.707031 -25.410156 8.734375 -23.929688 8.203125 -22.203125 C 7.679688 -20.484375 7.421875 -18.554688 7.421875 -16.421875 C 7.421875 -15.015625 7.601562 -13.585938 7.96875 -12.140625 C 8.332031 -10.691406 8.863281 -9.316406 9.5625 -8.015625 C 10.269531 -6.710938 11.238281 -5.648438 12.46875 -4.828125 C 13.695312 -4.003906 15.070312 -3.59375 16.59375 -3.59375 C 19.3125 -3.59375 21.8125 -4.691406 24.09375 -6.890625 Z M 26.859375 -2.71875 " />
            </g>
        </g>
    </g>
    <g fill="#183172" fill-opacity="1">
        <g transform="translate(222.118665, 195.118665)">
            <g>
                <path
                    d="M 24.796875 -27.78125 L 15.75 -27.78125 L 15.75 0 L 9.484375 0 L 9.484375 -27.78125 L 0.578125 -27.78125 L 0.578125 -32.125 L 24.796875 -32.125 Z M 24.796875 -27.78125 " />
            </g>
        </g>
    </g>
    <g fill="#183172" fill-opacity="1">
        <g transform="translate(247.48319, 195.118665)">
            <g>
                <path
                    d="M 31.515625 -16.015625 C 31.515625 -11.191406 30.125 -7.234375 27.34375 -4.140625 C 24.5625 -1.054688 20.785156 0.484375 16.015625 0.484375 C 11.242188 0.484375 7.519531 -1.070312 4.84375 -4.1875 C 2.164062 -7.300781 0.828125 -11.273438 0.828125 -16.109375 C 0.828125 -20.960938 2.171875 -24.925781 4.859375 -28 C 7.554688 -31.070312 11.289062 -32.609375 16.0625 -32.609375 C 20.945312 -32.609375 24.742188 -31.078125 27.453125 -28.015625 C 30.160156 -24.960938 31.515625 -20.960938 31.515625 -16.015625 Z M 25.015625 -15.84375 C 25.015625 -17.394531 24.867188 -18.863281 24.578125 -20.25 C 24.285156 -21.644531 23.816406 -22.976562 23.171875 -24.25 C 22.523438 -25.519531 21.59375 -26.535156 20.375 -27.296875 C 19.164062 -28.054688 17.742188 -28.4375 16.109375 -28.4375 C 14.492188 -28.4375 13.085938 -28.078125 11.890625 -27.359375 C 10.691406 -26.648438 9.769531 -25.6875 9.125 -24.46875 C 8.476562 -23.25 8.007812 -21.957031 7.71875 -20.59375 C 7.425781 -19.238281 7.28125 -17.800781 7.28125 -16.28125 C 7.28125 -14.726562 7.425781 -13.253906 7.71875 -11.859375 C 8.007812 -10.472656 8.476562 -9.144531 9.125 -7.875 C 9.769531 -6.601562 10.695312 -5.585938 11.90625 -4.828125 C 13.125 -4.066406 14.554688 -3.6875 16.203125 -3.6875 C 17.804688 -3.6875 19.207031 -4.046875 20.40625 -4.765625 C 21.601562 -5.484375 22.523438 -6.445312 23.171875 -7.65625 C 23.816406 -8.875 24.285156 -10.160156 24.578125 -11.515625 C 24.867188 -12.878906 25.015625 -14.320312 25.015625 -15.84375 Z M 25.015625 -15.84375 " />
            </g>
        </g>
    </g>
    <g fill="#183172" fill-opacity="1">
        <g transform="translate(279.825164, 195.118665)">
            <g>
                <path
                    d="M 27.078125 0 L 20.234375 0 L 11.328125 -14.3125 L 8.90625 -14.3125 L 8.90625 0 L 2.890625 0 L 2.890625 -29.453125 C 2.890625 -29.503906 2.785156 -29.929688 2.578125 -30.734375 C 2.378906 -31.546875 2.265625 -32.007812 2.234375 -32.125 L 13.25 -32.125 C 16.5 -32.125 19.117188 -31.4375 21.109375 -30.0625 C 23.097656 -28.6875 24.09375 -26.445312 24.09375 -23.34375 C 24.09375 -21.53125 23.40625 -19.832031 22.03125 -18.25 C 20.65625 -16.675781 19.0625 -15.671875 17.25 -15.234375 Z M 17.734375 -23.390625 C 17.734375 -24.765625 17.25 -25.832031 16.28125 -26.59375 C 15.3125 -27.351562 14.113281 -27.734375 12.6875 -27.734375 L 8.90625 -27.734375 L 8.90625 -18.609375 L 11.71875 -18.609375 C 15.726562 -18.609375 17.734375 -20.203125 17.734375 -23.390625 Z M 17.734375 -23.390625 " />
            </g>
        </g>
    </g>
    <g fill="#183172" fill-opacity="1">
        <g transform="translate(305.760178, 195.118665)">
            <g>
                <path
                    d="M 7.015625 -5.265625 C 7.691406 -4.585938 8.03125 -3.78125 8.03125 -2.84375 C 8.03125 -1.914062 7.703125 -1.117188 7.046875 -0.453125 C 6.390625 0.203125 5.59375 0.53125 4.65625 0.53125 C 3.71875 0.53125 2.914062 0.203125 2.25 -0.453125 C 1.59375 -1.117188 1.265625 -1.914062 1.265625 -2.84375 C 1.265625 -3.78125 1.59375 -4.585938 2.25 -5.265625 C 2.914062 -5.941406 3.71875 -6.28125 4.65625 -6.28125 C 5.59375 -6.28125 6.378906 -5.941406 7.015625 -5.265625 Z M 7.015625 -5.265625 " />
            </g>
        </g>
    </g>
    <g fill="#183172" fill-opacity="1">
        <g transform="translate(315.765569, 195.118665)">
            <g>
                <path
                    d="M 27.609375 0 L 21.109375 0 L 17.953125 -9.21875 L 8.46875 -9.21875 L 5.171875 0 L 0.09375 0 L 11.453125 -32.125 L 16.234375 -32.125 Z M 16.5 -13.515625 C 15.09375 -17.816406 13.984375 -21.472656 13.171875 -24.484375 C 12.171875 -20.828125 11.101562 -17.171875 9.96875 -13.515625 Z M 16.5 -13.515625 " />
            </g>
        </g>
    </g>
    <g fill="#183172" fill-opacity="1">
        <g transform="translate(343.45591, 195.118665)">
            <g>
                <path
                    d="M 8.953125 0 L 2.890625 0 L 2.890625 -29.453125 C 2.890625 -29.484375 2.835938 -29.703125 2.734375 -30.109375 C 2.640625 -30.515625 2.539062 -30.9375 2.4375 -31.375 C 2.332031 -31.820312 2.28125 -32.070312 2.28125 -32.125 L 8.953125 -32.125 Z M 8.953125 0 " />
            </g>
        </g>
    </g>
    <g fill="#183e9f" fill-opacity="1">
        <g transform="translate(118.858862, 219.322526)">
            <g>
                <path
                    d="M 7.703125 0 L 1.015625 0 L 1.015625 -10.09375 L 0.78125 -11.015625 L 7.703125 -11.015625 L 7.703125 -9.53125 L 3.0625 -9.53125 L 3.0625 -6.40625 L 6.625 -6.40625 L 6.625 -4.921875 L 3.0625 -4.921875 L 3.0625 -1.484375 L 7.703125 -1.484375 Z M 7.703125 0 " />
            </g>
        </g>
    </g>
    <g fill="#183e9f" fill-opacity="1">
        <g transform="translate(127.120823, 219.322526)">
            <g>
                <path
                    d="M 11.828125 -0.015625 L 9.796875 -0.015625 L 9.796875 -7.484375 C 9.796875 -7.617188 9.820312 -7.976562 9.875 -8.5625 C 9.84375 -8.476562 9.800781 -8.363281 9.75 -8.21875 C 9.707031 -8.070312 9.664062 -7.9375 9.625 -7.8125 C 9.582031 -7.695312 9.546875 -7.585938 9.515625 -7.484375 L 6.8125 0 L 5.703125 0 L 2.9375 -7.484375 C 2.894531 -7.585938 2.851562 -7.695312 2.8125 -7.8125 C 2.769531 -7.9375 2.726562 -8.070312 2.6875 -8.21875 C 2.644531 -8.363281 2.609375 -8.476562 2.578125 -8.5625 C 2.578125 -8.46875 2.585938 -8.296875 2.609375 -8.046875 C 2.628906 -7.796875 2.640625 -7.609375 2.640625 -7.484375 L 2.640625 -0.015625 L 1.015625 -0.015625 L 1.015625 -10.09375 C 1.015625 -10.101562 0.992188 -10.175781 0.953125 -10.3125 C 0.921875 -10.457031 0.882812 -10.601562 0.84375 -10.75 C 0.8125 -10.90625 0.796875 -10.992188 0.796875 -11.015625 L 3.6875 -11.015625 L 6.03125 -4.6875 C 6.144531 -4.394531 6.289062 -3.789062 6.46875 -2.875 C 6.488281 -2.945312 6.539062 -3.195312 6.625 -3.625 C 6.707031 -4.0625 6.789062 -4.398438 6.875 -4.640625 L 9.171875 -11.015625 L 11.828125 -11.015625 Z M 11.828125 -0.015625 " />
            </g>
        </g>
    </g>
    <g fill="#183e9f" fill-opacity="1">
        <g transform="translate(139.731979, 219.322526)">
            <g>
                <path
                    d="M 8.265625 -7.71875 C 8.265625 -6.632812 7.878906 -5.8125 7.109375 -5.25 C 6.335938 -4.695312 5.394531 -4.421875 4.28125 -4.421875 L 3.046875 -4.421875 L 3.046875 0 L 1 0 L 1 -10.09375 C 1 -10.113281 0.960938 -10.257812 0.890625 -10.53125 C 0.816406 -10.8125 0.773438 -10.972656 0.765625 -11.015625 L 4.265625 -11.015625 C 5.460938 -11.015625 6.425781 -10.753906 7.15625 -10.234375 C 7.894531 -9.722656 8.265625 -8.882812 8.265625 -7.71875 Z M 6.0625 -7.71875 C 6.0625 -8.28125 5.914062 -8.722656 5.625 -9.046875 C 5.332031 -9.367188 4.90625 -9.53125 4.34375 -9.53125 L 3.0625 -9.53125 L 3.0625 -5.890625 L 4.328125 -5.890625 C 4.867188 -5.890625 5.289062 -6.054688 5.59375 -6.390625 C 5.90625 -6.722656 6.0625 -7.164062 6.0625 -7.71875 Z M 6.0625 -7.71875 " />
            </g>
        </g>
    </g>
    <g fill="#183e9f" fill-opacity="1">
        <g transform="translate(148.385217, 219.322526)">
            <g>
                <path
                    d="M 10.796875 -5.484375 C 10.796875 -3.835938 10.316406 -2.484375 9.359375 -1.421875 C 8.410156 -0.359375 7.117188 0.171875 5.484375 0.171875 C 3.859375 0.171875 2.582031 -0.363281 1.65625 -1.4375 C 0.738281 -2.507812 0.28125 -3.867188 0.28125 -5.515625 C 0.28125 -7.179688 0.738281 -8.539062 1.65625 -9.59375 C 2.582031 -10.65625 3.863281 -11.1875 5.5 -11.1875 C 7.175781 -11.1875 8.476562 -10.660156 9.40625 -9.609375 C 10.332031 -8.554688 10.796875 -7.179688 10.796875 -5.484375 Z M 8.578125 -5.4375 C 8.578125 -5.96875 8.523438 -6.46875 8.421875 -6.9375 C 8.328125 -7.414062 8.164062 -7.875 7.9375 -8.3125 C 7.71875 -8.75 7.398438 -9.097656 6.984375 -9.359375 C 6.566406 -9.617188 6.078125 -9.75 5.515625 -9.75 C 4.960938 -9.75 4.476562 -9.625 4.0625 -9.375 C 3.65625 -9.132812 3.34375 -8.804688 3.125 -8.390625 C 2.90625 -7.972656 2.742188 -7.53125 2.640625 -7.0625 C 2.546875 -6.59375 2.5 -6.097656 2.5 -5.578125 C 2.5 -5.046875 2.546875 -4.539062 2.640625 -4.0625 C 2.742188 -3.59375 2.90625 -3.140625 3.125 -2.703125 C 3.34375 -2.265625 3.660156 -1.914062 4.078125 -1.65625 C 4.492188 -1.394531 4.984375 -1.265625 5.546875 -1.265625 C 6.097656 -1.265625 6.578125 -1.382812 6.984375 -1.625 C 7.398438 -1.875 7.71875 -2.207031 7.9375 -2.625 C 8.164062 -3.039062 8.328125 -3.484375 8.421875 -3.953125 C 8.523438 -4.421875 8.578125 -4.914062 8.578125 -5.4375 Z M 8.578125 -5.4375 " />
            </g>
        </g>
    </g>
    <g fill="#183e9f" fill-opacity="1">
        <g transform="translate(159.476417, 219.322526)">
            <g>
                <path
                    d="M 13.65625 -11.015625 L 10.609375 0.03125 L 8.75 0.03125 C 8.632812 -0.351562 8.445312 -1 8.1875 -1.90625 C 7.9375 -2.8125 7.71875 -3.601562 7.53125 -4.28125 C 7.351562 -4.957031 7.191406 -5.609375 7.046875 -6.234375 C 6.898438 -6.828125 6.796875 -7.390625 6.734375 -7.921875 C 6.609375 -7.035156 6.441406 -6.207031 6.234375 -5.4375 L 4.734375 0.03125 L 2.8125 0.03125 L -0.203125 -11.015625 L 1.859375 -11.015625 C 2.921875 -7.203125 3.503906 -5.082031 3.609375 -4.65625 C 3.742188 -4.113281 3.859375 -3.472656 3.953125 -2.734375 C 4.046875 -3.390625 4.222656 -4.210938 4.484375 -5.203125 L 6.0625 -11.015625 L 7.8125 -11.015625 C 7.925781 -10.578125 8.109375 -9.910156 8.359375 -9.015625 C 8.617188 -8.128906 8.84375 -7.332031 9.03125 -6.625 C 9.226562 -5.914062 9.40625 -5.25 9.5625 -4.625 C 9.6875 -4.125 9.796875 -3.492188 9.890625 -2.734375 C 10.003906 -3.597656 10.171875 -4.421875 10.390625 -5.203125 L 12 -11.015625 Z M 13.65625 -11.015625 " />
            </g>
        </g>
    </g>
    <g fill="#183e9f" fill-opacity="1">
        <g transform="translate(172.930333, 219.322526)">
            <g>
                <path
                    d="M 7.703125 0 L 1.015625 0 L 1.015625 -10.09375 L 0.78125 -11.015625 L 7.703125 -11.015625 L 7.703125 -9.53125 L 3.0625 -9.53125 L 3.0625 -6.40625 L 6.625 -6.40625 L 6.625 -4.921875 L 3.0625 -4.921875 L 3.0625 -1.484375 L 7.703125 -1.484375 Z M 7.703125 0 " />
            </g>
        </g>
    </g>
    <g fill="#183e9f" fill-opacity="1">
        <g transform="translate(181.192294, 219.322526)">
            <g>
                <path
                    d="M 9.28125 0 L 6.9375 0 L 3.875 -4.90625 L 3.046875 -4.90625 L 3.046875 0 L 1 0 L 1 -10.09375 C 1 -10.113281 0.960938 -10.257812 0.890625 -10.53125 C 0.816406 -10.8125 0.773438 -10.972656 0.765625 -11.015625 L 4.546875 -11.015625 C 5.660156 -11.015625 6.554688 -10.773438 7.234375 -10.296875 C 7.921875 -9.828125 8.265625 -9.0625 8.265625 -8 C 8.265625 -7.382812 8.023438 -6.804688 7.546875 -6.265625 C 7.078125 -5.722656 6.53125 -5.375 5.90625 -5.21875 Z M 6.078125 -8.015625 C 6.078125 -8.492188 5.910156 -8.863281 5.578125 -9.125 C 5.242188 -9.382812 4.832031 -9.515625 4.34375 -9.515625 L 3.046875 -9.515625 L 3.046875 -6.375 L 4.015625 -6.375 C 5.390625 -6.375 6.078125 -6.921875 6.078125 -8.015625 Z M 6.078125 -8.015625 " />
            </g>
        </g>
    </g>
    <g fill="#183e9f" fill-opacity="1">
        <g transform="translate(190.086329, 219.322526)">
            <g>
                <path
                    d="M 3.0625 0 L 1 0 L 1 -10.09375 C 1 -10.101562 0.976562 -10.175781 0.9375 -10.3125 C 0.90625 -10.457031 0.867188 -10.601562 0.828125 -10.75 C 0.796875 -10.90625 0.78125 -10.992188 0.78125 -11.015625 L 3.0625 -11.015625 Z M 3.0625 0 " />
            </g>
        </g>
    </g>
    <g fill="#183e9f" fill-opacity="1">
        <g transform="translate(194.119494, 219.322526)">
            <g>
                <path
                    d="M 9.78125 0.078125 L 8.15625 0.078125 L 3.203125 -7.484375 C 2.859375 -8.015625 2.648438 -8.347656 2.578125 -8.484375 C 2.628906 -7.828125 2.65625 -7.492188 2.65625 -7.484375 L 2.65625 0 L 1 0 L 1 -10.078125 C 1 -10.085938 0.976562 -10.160156 0.9375 -10.296875 C 0.90625 -10.441406 0.867188 -10.585938 0.828125 -10.734375 C 0.796875 -10.890625 0.78125 -10.976562 0.78125 -11 L 3.25 -11 L 7.578125 -4.40625 C 7.734375 -4.1875 7.941406 -3.859375 8.203125 -3.421875 C 8.140625 -4.171875 8.109375 -4.554688 8.109375 -4.578125 L 8.109375 -11 L 9.78125 -11 Z M 9.78125 0.078125 " />
            </g>
        </g>
    </g>
    <g fill="#183e9f" fill-opacity="1">
        <g transform="translate(204.864569, 219.322526)">
            <g>
                <path
                    d="M 10.046875 0.015625 L 8.984375 0.015625 L 8.46875 -1.125 C 7.96875 -0.664062 7.46875 -0.332031 6.96875 -0.125 C 6.46875 0.0703125 5.875 0.171875 5.1875 0.171875 C 3.625 0.171875 2.421875 -0.351562 1.578125 -1.40625 C 0.734375 -2.457031 0.3125 -3.789062 0.3125 -5.40625 C 0.3125 -7.15625 0.796875 -8.554688 1.765625 -9.609375 C 2.742188 -10.660156 4.097656 -11.1875 5.828125 -11.1875 C 6.503906 -11.1875 7.210938 -11.085938 7.953125 -10.890625 C 8.703125 -10.691406 9.28125 -10.394531 9.6875 -10 L 8.59375 -8.765625 C 8.0625 -9.160156 7.613281 -9.425781 7.25 -9.5625 C 6.894531 -9.707031 6.421875 -9.78125 5.828125 -9.78125 C 5.035156 -9.78125 4.378906 -9.570312 3.859375 -9.15625 C 3.335938 -8.738281 2.976562 -8.222656 2.78125 -7.609375 C 2.59375 -7.003906 2.5 -6.3125 2.5 -5.53125 C 2.5 -5.039062 2.554688 -4.554688 2.671875 -4.078125 C 2.785156 -3.609375 2.953125 -3.15625 3.171875 -2.71875 C 3.398438 -2.289062 3.71875 -1.941406 4.125 -1.671875 C 4.539062 -1.410156 5.007812 -1.28125 5.53125 -1.28125 C 6.25 -1.28125 6.828125 -1.488281 7.265625 -1.90625 C 7.703125 -2.332031 7.921875 -2.898438 7.921875 -3.609375 L 7.921875 -4.546875 L 5.625 -4.546875 L 5.828125 -5.875 L 10 -5.875 C 9.976562 -4.644531 9.96875 -3.71875 9.96875 -3.09375 C 9.96875 -1.882812 9.992188 -0.847656 10.046875 0.015625 Z M 10.046875 0.015625 " />
            </g>
        </g>
    </g>
    <g fill="#183e9f" fill-opacity="1">
        <g transform="translate(215.5043, 219.322526)">
            <g />
        </g>
    </g>
    <g fill="#183e9f" fill-opacity="1">
        <g transform="translate(218.965598, 219.322526)">
            <g>
                <path
                    d="M 9.78125 0 L 7.703125 0 L 7.703125 -4.921875 L 3.078125 -4.921875 L 3.078125 0 L 1.015625 0 L 1.015625 -10.09375 C 1.015625 -10.101562 0.992188 -10.175781 0.953125 -10.3125 C 0.921875 -10.457031 0.882812 -10.601562 0.84375 -10.75 C 0.8125 -10.90625 0.796875 -10.992188 0.796875 -11.015625 L 3.078125 -11.015625 L 3.078125 -6.40625 L 7.703125 -6.40625 L 7.703125 -11.015625 L 9.78125 -11.015625 Z M 9.78125 0 " />
            </g>
        </g>
    </g>
    <g fill="#183e9f" fill-opacity="1">
        <g transform="translate(229.710673, 219.322526)">
            <g>
                <path
                    d="M 7.703125 0 L 1.015625 0 L 1.015625 -10.09375 L 0.78125 -11.015625 L 7.703125 -11.015625 L 7.703125 -9.53125 L 3.0625 -9.53125 L 3.0625 -6.40625 L 6.625 -6.40625 L 6.625 -4.921875 L 3.0625 -4.921875 L 3.0625 -1.484375 L 7.703125 -1.484375 Z M 7.703125 0 " />
            </g>
        </g>
    </g>
    <g fill="#183e9f" fill-opacity="1">
        <g transform="translate(237.972635, 219.322526)">
            <g>
                <path
                    d="M 9.46875 0 L 7.234375 0 L 6.15625 -3.15625 L 2.90625 -3.15625 L 1.78125 0 L 0.03125 0 L 3.921875 -11.015625 L 5.5625 -11.015625 Z M 5.65625 -4.640625 C 5.175781 -6.109375 4.796875 -7.359375 4.515625 -8.390625 C 4.171875 -7.140625 3.804688 -5.890625 3.421875 -4.640625 Z M 5.65625 -4.640625 " />
            </g>
        </g>
    </g>
    <g fill="#183e9f" fill-opacity="1">
        <g transform="translate(247.468632, 219.322526)">
            <g>
                <path
                    d="M 7.40625 0 L 1 0 L 1 -10.09375 C 1 -10.101562 0.984375 -10.175781 0.953125 -10.3125 C 0.921875 -10.457031 0.882812 -10.601562 0.84375 -10.75 C 0.8125 -10.90625 0.796875 -10.992188 0.796875 -11.015625 L 3.078125 -11.015625 L 3.078125 -1.484375 L 7.40625 -1.484375 Z M 7.40625 0 " />
            </g>
        </g>
    </g>
    <g fill="#183e9f" fill-opacity="1">
        <g transform="translate(255.203878, 219.322526)">
            <g>
                <path
                    d="M 8.5 -9.53125 L 5.40625 -9.53125 L 5.40625 0 L 3.25 0 L 3.25 -9.53125 L 0.203125 -9.53125 L 0.203125 -11.015625 L 8.5 -11.015625 Z M 8.5 -9.53125 " />
            </g>
        </g>
    </g>
    <g fill="#183e9f" fill-opacity="1">
        <g transform="translate(263.902267, 219.322526)">
            <g>
                <path
                    d="M 9.78125 0 L 7.703125 0 L 7.703125 -4.921875 L 3.078125 -4.921875 L 3.078125 0 L 1.015625 0 L 1.015625 -10.09375 C 1.015625 -10.101562 0.992188 -10.175781 0.953125 -10.3125 C 0.921875 -10.457031 0.882812 -10.601562 0.84375 -10.75 C 0.8125 -10.90625 0.796875 -10.992188 0.796875 -11.015625 L 3.078125 -11.015625 L 3.078125 -6.40625 L 7.703125 -6.40625 L 7.703125 -11.015625 L 9.78125 -11.015625 Z M 9.78125 0 " />
            </g>
        </g>
    </g>
    <g fill="#183e9f" fill-opacity="1">
        <g transform="translate(274.647342, 219.322526)">
            <g>
                <path
                    d="M 9.203125 -0.9375 C 8.578125 -0.539062 7.988281 -0.253906 7.4375 -0.078125 C 6.894531 0.0976562 6.269531 0.1875 5.5625 0.1875 C 3.875 0.1875 2.570312 -0.34375 1.65625 -1.40625 C 0.75 -2.476562 0.296875 -3.867188 0.296875 -5.578125 C 0.296875 -7.210938 0.769531 -8.5625 1.71875 -9.625 C 2.675781 -10.6875 3.960938 -11.21875 5.578125 -11.21875 C 6.203125 -11.21875 6.851562 -11.128906 7.53125 -10.953125 C 8.21875 -10.773438 8.757812 -10.507812 9.15625 -10.15625 L 8.0625 -8.765625 C 7.789062 -9.066406 7.425781 -9.304688 6.96875 -9.484375 C 6.519531 -9.671875 6.082031 -9.765625 5.65625 -9.765625 C 4.914062 -9.765625 4.300781 -9.550781 3.8125 -9.125 C 3.320312 -8.707031 2.988281 -8.203125 2.8125 -7.609375 C 2.632812 -7.015625 2.546875 -6.351562 2.546875 -5.625 C 2.546875 -5.144531 2.609375 -4.65625 2.734375 -4.15625 C 2.859375 -3.664062 3.039062 -3.195312 3.28125 -2.75 C 3.519531 -2.300781 3.847656 -1.9375 4.265625 -1.65625 C 4.691406 -1.375 5.164062 -1.234375 5.6875 -1.234375 C 6.625 -1.234375 7.484375 -1.609375 8.265625 -2.359375 Z M 9.203125 -0.9375 " />
            </g>
        </g>
    </g>
    <g fill="#183e9f" fill-opacity="1">
        <g transform="translate(284.037996, 219.322526)">
            <g>
                <path
                    d="M 9.46875 0 L 7.234375 0 L 6.15625 -3.15625 L 2.90625 -3.15625 L 1.78125 0 L 0.03125 0 L 3.921875 -11.015625 L 5.5625 -11.015625 Z M 5.65625 -4.640625 C 5.175781 -6.109375 4.796875 -7.359375 4.515625 -8.390625 C 4.171875 -7.140625 3.804688 -5.890625 3.421875 -4.640625 Z M 5.65625 -4.640625 " />
            </g>
        </g>
    </g>
    <g fill="#183e9f" fill-opacity="1">
        <g transform="translate(293.533994, 219.322526)">
            <g>
                <path
                    d="M 9.28125 0 L 6.9375 0 L 3.875 -4.90625 L 3.046875 -4.90625 L 3.046875 0 L 1 0 L 1 -10.09375 C 1 -10.113281 0.960938 -10.257812 0.890625 -10.53125 C 0.816406 -10.8125 0.773438 -10.972656 0.765625 -11.015625 L 4.546875 -11.015625 C 5.660156 -11.015625 6.554688 -10.773438 7.234375 -10.296875 C 7.921875 -9.828125 8.265625 -9.0625 8.265625 -8 C 8.265625 -7.382812 8.023438 -6.804688 7.546875 -6.265625 C 7.078125 -5.722656 6.53125 -5.375 5.90625 -5.21875 Z M 6.078125 -8.015625 C 6.078125 -8.492188 5.910156 -8.863281 5.578125 -9.125 C 5.242188 -9.382812 4.832031 -9.515625 4.34375 -9.515625 L 3.046875 -9.515625 L 3.046875 -6.375 L 4.015625 -6.375 C 5.390625 -6.375 6.078125 -6.921875 6.078125 -8.015625 Z M 6.078125 -8.015625 " />
            </g>
        </g>
    </g>
    <g fill="#183e9f" fill-opacity="1">
        <g transform="translate(302.428029, 219.322526)">
            <g>
                <path
                    d="M 7.703125 0 L 1.015625 0 L 1.015625 -10.09375 L 0.78125 -11.015625 L 7.703125 -11.015625 L 7.703125 -9.53125 L 3.0625 -9.53125 L 3.0625 -6.40625 L 6.625 -6.40625 L 6.625 -4.921875 L 3.0625 -4.921875 L 3.0625 -1.484375 L 7.703125 -1.484375 Z M 7.703125 0 " />
            </g>
        </g>
    </g>
    <g fill="#183e9f" fill-opacity="1">
        <g transform="translate(310.68999, 219.322526)">
            <g />
        </g>
    </g>
    <g fill="#183e9f" fill-opacity="1">
        <g transform="translate(314.151288, 219.322526)">
            <g>
                <path
                    d="M 13.65625 -11.015625 L 10.609375 0.03125 L 8.75 0.03125 C 8.632812 -0.351562 8.445312 -1 8.1875 -1.90625 C 7.9375 -2.8125 7.71875 -3.601562 7.53125 -4.28125 C 7.351562 -4.957031 7.191406 -5.609375 7.046875 -6.234375 C 6.898438 -6.828125 6.796875 -7.390625 6.734375 -7.921875 C 6.609375 -7.035156 6.441406 -6.207031 6.234375 -5.4375 L 4.734375 0.03125 L 2.8125 0.03125 L -0.203125 -11.015625 L 1.859375 -11.015625 C 2.921875 -7.203125 3.503906 -5.082031 3.609375 -4.65625 C 3.742188 -4.113281 3.859375 -3.472656 3.953125 -2.734375 C 4.046875 -3.390625 4.222656 -4.210938 4.484375 -5.203125 L 6.0625 -11.015625 L 7.8125 -11.015625 C 7.925781 -10.578125 8.109375 -9.910156 8.359375 -9.015625 C 8.617188 -8.128906 8.84375 -7.332031 9.03125 -6.625 C 9.226562 -5.914062 9.40625 -5.25 9.5625 -4.625 C 9.6875 -4.125 9.796875 -3.492188 9.890625 -2.734375 C 10.003906 -3.597656 10.171875 -4.421875 10.390625 -5.203125 L 12 -11.015625 Z M 13.65625 -11.015625 " />
            </g>
        </g>
    </g>
    <g fill="#183e9f" fill-opacity="1">
        <g transform="translate(327.605204, 219.322526)">
            <g>
                <path
                    d="M 3.0625 0 L 1 0 L 1 -10.09375 C 1 -10.101562 0.976562 -10.175781 0.9375 -10.3125 C 0.90625 -10.457031 0.867188 -10.601562 0.828125 -10.75 C 0.796875 -10.90625 0.78125 -10.992188 0.78125 -11.015625 L 3.0625 -11.015625 Z M 3.0625 0 " />
            </g>
        </g>
    </g>
    <g fill="#183e9f" fill-opacity="1">
        <g transform="translate(331.638369, 219.322526)">
            <g>
                <path
                    d="M 8.5 -9.53125 L 5.40625 -9.53125 L 5.40625 0 L 3.25 0 L 3.25 -9.53125 L 0.203125 -9.53125 L 0.203125 -11.015625 L 8.5 -11.015625 Z M 8.5 -9.53125 " />
            </g>
        </g>
    </g>
    <g fill="#183e9f" fill-opacity="1">
        <g transform="translate(340.336758, 219.322526)">
            <g>
                <path
                    d="M 9.78125 0 L 7.703125 0 L 7.703125 -4.921875 L 3.078125 -4.921875 L 3.078125 0 L 1.015625 0 L 1.015625 -10.09375 C 1.015625 -10.101562 0.992188 -10.175781 0.953125 -10.3125 C 0.921875 -10.457031 0.882812 -10.601562 0.84375 -10.75 C 0.8125 -10.90625 0.796875 -10.992188 0.796875 -11.015625 L 3.078125 -11.015625 L 3.078125 -6.40625 L 7.703125 -6.40625 L 7.703125 -11.015625 L 9.78125 -11.015625 Z M 9.78125 0 " />
            </g>
        </g>
    </g>
    <g fill="#183e9f" fill-opacity="1">
        <g transform="translate(351.081833, 219.322526)">
            <g />
        </g>
    </g>
    <g fill="#183e9f" fill-opacity="1">
        <g transform="translate(354.543131, 219.322526)">
            <g>
                <path
                    d="M 9.46875 0 L 7.234375 0 L 6.15625 -3.15625 L 2.90625 -3.15625 L 1.78125 0 L 0.03125 0 L 3.921875 -11.015625 L 5.5625 -11.015625 Z M 5.65625 -4.640625 C 5.175781 -6.109375 4.796875 -7.359375 4.515625 -8.390625 C 4.171875 -7.140625 3.804688 -5.890625 3.421875 -4.640625 Z M 5.65625 -4.640625 " />
            </g>
        </g>
    </g>
    <g fill="#183e9f" fill-opacity="1">
        <g transform="translate(364.039143, 219.322526)">
            <g>
                <path
                    d="M 3.0625 0 L 1 0 L 1 -10.09375 C 1 -10.101562 0.976562 -10.175781 0.9375 -10.3125 C 0.90625 -10.457031 0.867188 -10.601562 0.828125 -10.75 C 0.796875 -10.90625 0.78125 -10.992188 0.78125 -11.015625 L 3.0625 -11.015625 Z M 3.0625 0 " />
            </g>
        </g>
    </g>
</svg>