<?xml version="1.0" encoding="utf-8"?>
<!-- Generator: Adobe Illustrator 27.5.0, SVG Export Plug-In . SVG Version: 6.00 Build 0)  -->
<svg version="1.1" xmlns="http://www.w3.org/2000/svg" xmlns:xlink="http://www.w3.org/1999/xlink" x="0px" y="0px"
	 viewBox="0 0 750 500" style="enable-background:new 0 0 750 500;" xml:space="preserve">
<g id="BACKGROUND">
	<rect style="fill:#FFFFFF;" width="750" height="500"/>
</g>
<g id="OBJECTS">
	<g>
		<defs>
			<path id="SVGID_1_" d="M553.423,115.838c-51.798-18.635-129.807-26.154-186.059-25.109
				c-56.931,1.058-125.479,8.158-179.001,25.893c-86.82,28.77-163.081,114.265-127.053,206.431
				c12.816,32.785,40.652,59.814,73.66,78.639c33.009,18.825,71.034,30.01,109.538,37.678
				c89.624,17.85,184.185,17.368,274.163-1.397c51.793-10.801,105.065-29.521,136.662-67.399
				c33.496-40.155,34.211-95.826,12.04-141.143C643.321,180.27,592.973,130.067,553.423,115.838z"/>
		</defs>
		<clipPath id="SVGID_00000062914295666294936230000002202539694729904565_">
			<use xlink:href="#SVGID_1_"  style="overflow:visible;"/>
		</clipPath>
		<path style="clip-path:url(#SVGID_00000062914295666294936230000002202539694729904565_);fill:#D8EEFE;" d="M647.095,199.735
			c-25.438-29.813-61.747-52.536-101.297-66.764c-51.798-18.635-108.935-23.781-165.186-22.736
			c-56.931,1.058-114.238,8.369-167.76,26.105c-86.82,28.77-187.569,94.548-151.541,186.714
			c12.816,32.785,40.652,59.814,73.66,78.639c33.009,18.825,71.034,30.01,109.538,37.678c89.624,17.85,184.185,17.368,274.163-1.397
			c51.793-10.801,105.065-29.521,136.662-67.399c33.496-40.155,35.577-96.52,12.04-141.143
			C661.808,218.881,654.973,208.968,647.095,199.735z"/>
		<g style="clip-path:url(#SVGID_00000062914295666294936230000002202539694729904565_);">
			<path style="fill:#313858;" d="M182.574,490.513c0.029-15.294,0.216-51.04,0.102-54.15c-0.788-21.531,1.519-38.962,1.519-38.962
				l36.901-1.145l19.538,92.812c0,0-0.043,0.508-0.12,1.445H182.574z"/>
			<path style="fill:#313858;" d="M223.089,490.513c-8.447-35.692-16.005-92.694-16.005-92.694l86.707-0.704
				c0,0,3.235,54.982,5.25,93.398H223.089z"/>
			<path style="fill:#FEC4AD;" d="M253.822,160.874c0,0,4.067,32.4,4.926,34.41c1.905,4.455,13.594,18.024,13.594,18.024
				s-35.776,19.62-46.487,19.62c-10.713,0-6.958-25.085-6.958-25.085s7.552-4.946,9.052-8.447
				c2.227-5.199,5.679-28.788,5.679-28.788L253.822,160.874z"/>
			<path style="fill:#F7A281;" d="M229.439,199.509c4.368-0.982,8.684-2.273,12.891-3.962c0.761-0.297,1.512-0.624,2.261-0.956
				c1.719-0.962,3.412-1.964,5.062-3.084c0.609-0.413,3.783-2.931,3.987-2.936c1.066-1.07,2.1-2.185,3.11-3.321
				c0.086-0.097,0.181-0.178,0.268-0.272c-1.447-10.16-3.197-24.103-3.197-24.103l-20.193,9.733c0,0-3.452,23.59-5.679,28.788
				c-0.062,0.143-0.148,0.293-0.229,0.441C228.461,199.701,229.159,199.572,229.439,199.509z"/>
			<path style="fill:#6EAFCF;" d="M233.551,403.082c-14.697-0.606-31.789-1.463-45.983-5.085
				c0.231-44.548,1.919-124.22,3.23-133.725c2.042-14.795,3.695-35.009,3.695-35.009l23.439-21.6l9.694,7.957l41.339-12.245
				l20.077,16.18c-15.089,59.222,1.56,118.803,0,179.725C279.303,400.308,273.085,404.712,233.551,403.082z"/>
			<g>
				<path style="fill:#FFFFFF;" d="M214.76,207.03c0,0-10.625,37.184-3.087,75.887c2.149,11.037,1.557,48.045,1.557,48.045
					s1.313,82.245-1.149,90.18c-2.461,7.935-1.302,16.584-16.936,16.46c-14.833-0.118-15.17-7.965-15.17-7.965
					s4.171-92.642,4.858-113.225c0.688-20.583-2.216-85.327,2.285-92.013C190.648,219.154,214.76,207.03,214.76,207.03z"/>
				<path style="fill:#C0E7FA;" d="M217.364,206.187c0,0-4.152,10.897-4.152,16.267c0,5.37-1.453,32.938-1.354,52.509
					c0.048,9.429,0.787,37.806,0.787,37.806s-15.381-60.579-14.262-63.685c1.178-3.268,8.421-12.29,8.421-12.29
					s-2.957-10.434-3.943-13.364c-0.986-2.929,2.529-6.211,5.151-10.015C210.125,210.349,217.364,206.187,217.364,206.187z"/>
				<g>
					<path style="fill:#FFFFFF;" d="M268.8,202.426c0,0-18.091,37.965-20.46,49.307c-6.843,32.758-9.742,59.107-9.742,59.107
						s-7.708,101.446-4.071,114.771c3.993,14.633,9.06,16.908,27.637,17.248c19.756,0.361,38.75-8.624,38.75-8.624
						s-7-78.73-7-101.42s10.637-84.69-1.394-109.848C289.625,216.914,268.8,202.426,268.8,202.426z"/>
				</g>
				<path style="fill:#C0E7FA;" d="M270.651,202.531c0,0-19.857,26.403-23.253,34.897c-3.396,8.494-8.333,30.972-9.37,74.435
					c0,0,6.673-24.155,11.368-34.177c6.728-14.362,11.518-21.713,11.058-23.991c-0.66-3.27-5.047-6.498-6.178-10.213
					c0,0,7.391-6.927,16.374-10.746c0,0,3.975-15.385,4.556-20.561C275.788,206.999,270.651,202.531,270.651,202.531z"/>
				<rect x="253.277" y="358.329" style="fill:#C0E7FA;" width="28.415" height="4.647"/>
				<rect x="186.162" y="358.329" style="fill:#C0E7FA;" width="21.572" height="4.647"/>
			</g>
			<path style="fill:#5F97B3;" d="M263.776,198.192l-36.15,17.428c0,0,11.867,14.906,17.576,14.522
				c9.415-0.633,25.449-27.611,25.449-27.611L263.776,198.192z"/>
			<path style="fill:#5F97B3;" d="M227.626,215.62c0,0-7.921,12.726-11.772,11.324c-4.771-1.737-0.773-20.43-0.773-20.43
				l8.756-3.143L227.626,215.62z"/>
			<path style="fill:#313131;" d="M217.197,128.988c-5.632,4.803-6.947,12.576-5.881,17.794c1.066,5.218,4.925,16.842,4.925,16.842
				s4.132-17.827,6.877-24.129c2.745-6.302,7.277-14.591,7.277-14.591L217.197,128.988z"/>
			<path style="fill:#FEC4AD;" d="M224.97,128.275c-3.575,1.982-9.722,6.2-10.052,9.408c-0.33,3.207-1.816,12.589-1.446,18.11
				c0.37,5.521-0.812,11.477,0.04,17.929c0.852,6.451,5.688,18.551,10.072,21.793c7.066,5.226,17.118-1.513,23.518-5.809
				c7.445-4.998,10.208-9.404,9.786-23.196c0,0,4.856-25.34,3.486-29.153c-3.326-9.266-22.648-5.335-28.17-6.155
				C226.683,130.383,224.97,128.275,224.97,128.275z"/>
			<path style="fill:#313131;" d="M258.307,136.758c1.853,3.007-4.21,6.725-4.691,9.474c-0.962,5.497,0.464,11.91,0.464,11.91
				l2.071,5.264c0,0-1.005,11.562-0.065,15.354c0.775,3.122,21.412-18.748,15.974-41.808c-2.354-9.981-11.5-7.027-11.5-7.027
				c-1.518-10.21-6.156-14.369-26.295-13.899c-20.14,0.469-23.635,16.601-23.635,16.601c3.384,2.185,1.438,8.478,11.995,9.134
				c19.351,1.203,22.286-6.952,29.943-8.269C254.199,133.211,256.454,133.751,258.307,136.758z"/>
			<path style="fill:#FEC4AD;" d="M254.217,165.268c0,0,1.604-4.479,4.522-7.347c2.463-2.42,6.164-2.474,7.112,1.363
				c1.154,4.672-3.065,7.648-3.303,10.388c-0.266,3.077-5.903,5.846-7.956,4.833L254.217,165.268z"/>
			<path style="opacity:0.52;fill:#965545;" d="M260.961,160.503c1.782-1.091,3.106,0.394,3.386,2.016
				c0.281,1.622-0.203,0.662-1.324-0.399c-1.121-1.061-2.733,1.134-2.805,2.668c-0.099,2.115-1.216,4.622-3.075,4.514
				c-1.859-0.108-0.815-0.607-0.255-2.79c0.56-2.183-0.102-0.031,0.763-2.122C258.517,162.299,259.428,161.441,260.961,160.503z"/>
			<g>
				<path style="fill:#FFFFFF;" d="M268.226,314.009c2.158-24.173,2.355-48.383,4.137-63.557
					c3.976-33.85,10.741-37.198,10.741-37.198s14.313,5.005,19.503,39.26c1.528,10.083,3.507,32.751,0.823,64.491
					c-2.115,25.013-6.077,28.115-12.175,30.748c-8.316,3.591-24.112,6.66-31.34,0.126
					C264.482,332.056,267.242,336.179,268.226,314.009z"/>
				
					<path style="fill:none;stroke:#C0E7FA;stroke-width:1.8425;stroke-linecap:round;stroke-linejoin:round;stroke-miterlimit:10;" d="
					M283.104,213.254c0,0,14.54,6.453,19.731,40.708c1.528,10.083,3.279,31.303,0.595,63.043
					c-2.115,25.013-6.077,28.115-12.175,30.748c-8.316,3.591-24.112,6.66-31.34,0.126"/>
				
					<path style="fill:none;stroke:#C0E7FA;stroke-width:1.8425;stroke-linecap:round;stroke-linejoin:round;stroke-miterlimit:10;" d="
					M272.363,250.452"/>
				<path style="fill:#FFFFFF;" d="M192.375,309.958c1.182-22.354,4.061-44.623,4.431-58.672c0.823-31.227-1.915-33.29-1.915-33.29
					s-11.843,5.883-18.255,27.618c-2.569,8.708-10.417,36.019-13.297,63.136c-2.329,21.931,1.121,27.861,5.695,30.901
					c6.76,4.492,28.229,1.233,33.688,0.535C200.631,324.879,190.437,330.343,192.375,309.958z"/>
				
					<path style="fill:none;stroke:#C0E7FA;stroke-width:1.8425;stroke-linecap:round;stroke-linejoin:round;stroke-miterlimit:10;" d="
					M194.891,217.996c0,0-11.843,5.883-18.255,27.618c-2.569,8.708-10.417,36.019-13.297,63.136
					c-2.329,21.931,1.121,27.861,5.695,30.901c6.76,4.492,45.51-0.779,50.97-1.477"/>
				
					<path style="fill:none;stroke:#C0E7FA;stroke-width:1.8425;stroke-linecap:round;stroke-linejoin:round;stroke-miterlimit:10;" d="
					M193.087,320.409c-0.428-24.486,0.84-27.507,2.878-50.969"/>
				
					<path style="fill:none;stroke:#C0E7FA;stroke-width:1.8425;stroke-linecap:round;stroke-linejoin:round;stroke-miterlimit:10;" d="
					M278.35,312.288c-0.623-21.582-0.452-42.376,0.471-62.39"/>
				<g>
					<path style="fill:#808194;" d="M250.164,338.078c8.774,1.629,9.158-18.225,9.158-18.225s-14.212-10.061-15.373-2.005
						C242.774,326.007,250.164,338.078,250.164,338.078z"/>
					<g>
						<path style="fill:#EDBDA6;" d="M243.739,308.381c4.379,0.287,13.229-5.984,20.041-0.527
							c6.951,5.567,11.354,11.486,11.354,11.486s-14.445-1.248-22.431,2.56c-7.944,3.788-15.917,10.554-15.917,10.554
							L243.739,308.381z"/>
						<path style="fill:#FFFFFF;" d="M246.207,306.389c-2.253,3.837,0.873,19.085,1.62,23.265c0,0-24.753,8.695-45.424,9.658
							c-25.364,1.182-31.56-1.381-36.048-6.236c-4.416-4.778,5.26-34.398,17.291-27.607c7.519,4.245,19.835,6.695,31.948,4.406
							C227.885,307.554,246.207,306.389,246.207,306.389z"/>
						
							<path style="fill:none;stroke:#C0E7FA;stroke-width:1.8425;stroke-linecap:round;stroke-linejoin:round;stroke-miterlimit:10;" d="
							M215.593,309.876c12.292-2.323,30.614-3.487,30.614-3.487c-2.253,3.837,6.045,28.577,6.793,32.758"/>
					</g>
				</g>
				<g>
					<g>
						<path style="fill:#EDBDA6;" d="M219.053,304.784c-4.095-0.8-13.133-8.401-20.274-4.918
							c-7.106,3.467-12.014,7.764-12.014,7.764s15.665,3.777,21.904,9.349c6.367,5.685,12.253,14.369,12.253,14.369L219.053,304.784
							z"/>
						<path style="fill:#FFFFFF;" d="M218.713,304.686c-5.52,1.897-9.447,7.478-10.404,27.684c0,0,21.219,11.909,36.404,17.186
							c24.969,7.252,39.492,1.548,46.141-1.929c6.673-3.49,8.853-36.712-5.141-35.454c-4.864,0.437-25.561,7.306-38.977,2.086
							C234.665,309.563,218.713,304.686,218.713,304.686z"/>
					</g>
				</g>
				<path style="fill:#EDBDA6;" d="M285.712,310.515c-3.256-2.586-6.464-3.149-10.008-4.386c-3.543-1.237-20.049-1.666-21.781,0.367
					c0,0,11.984,7.922,14.174,11.28c1.323,2.242,2.577,5.165,4.033,6.019c1.456,0.854,2.697,0.371,3.142-0.819
					c0.146-0.389,0.049-1.076-0.144-1.824c0.768,0.416,1.664,1,2.556,1.818c2.3,2.108,4.292,2.436,4.343,1.146
					c0.05-1.286-2.233-4.686-2.233-4.686s1.95,1.742,3.28,3.412c1.334,1.674,3.772,2.313,3.718,0.227
					c-0.054-2.077-2.298-5.528-4.217-7.771c-1.143-1.336-2.282-2.148-3.02-2.593c0.889,0.469,2.307,1.201,3.258,1.606
					c1.735,0.739,5.974,3.714,6.925,1.784C290.686,314.176,288.98,313.11,285.712,310.515z"/>
			</g>
			
				<path style="fill:none;stroke:#C0E7FA;stroke-width:1.8425;stroke-linecap:round;stroke-linejoin:round;stroke-miterlimit:10;" d="
				M203.844,314.288c-9.814-5.728-20.87-8.968-31.645-9.602"/>
			
				<path style="fill:none;stroke:#C0E7FA;stroke-width:1.8425;stroke-linecap:round;stroke-linejoin:round;stroke-miterlimit:10;" d="
				M287.345,350.191c-14.789,6.667-35.093,2.489-47.241-2.277c-8.105-3.179-15.36-7.468-22.834-11.101
				c-4.621-2.247-6.081-2.863-8.961-4.969c0,0,0.13-17.09,5.977-24.116"/>
			
				<path style="fill:none;stroke:#C0E7FA;stroke-width:1.8425;stroke-linecap:round;stroke-linejoin:round;stroke-miterlimit:10;" d="
				M216.603,303.255c7.576,2.297,30.37,16.001,45.875,14.094"/>
		</g>
		<g style="clip-path:url(#SVGID_00000062914295666294936230000002202539694729904565_);">
			<g>
				<path id="XMLID_31_" style="fill:#20000C;" d="M539.005,166.244c-0.755,12.577-6.774,32.251-9.509,34.676
					c0,0-3.666,2.641-17.003,1.194c-13.87-1.505-16.525-7.046-16.525-7.046s-15.181-22.451-10.427-41.984
					c4.754-19.533,7.624-26.455,17.98-29.625c10.357-3.169,22.536,4.004,22.536,4.004S539.684,154.926,539.005,166.244z"/>
				<g>
					<path style="fill:#EDBDA6;" d="M481.301,223.255l-0.492-18.934l12.476-6.714c0,0,2.946-1.252,3.926-2.284
						c4.803-5.059,4.839-25.759,4.839-25.759l17.703-0.493c0,0,0.059,19.418,5.846,26.128c1.384,1.605,8.187,6.064,8.342,5.417
						l6.737,9.034l-1.717,14.216C519.758,222.697,500.536,222.713,481.301,223.255z"/>
					<path style="fill:#F7A281;" d="M510.107,192.295c-1.271,0.251-2.547,0.477-3.827,0.683c-0.028,0.003-0.052,0.006-0.081,0.009
						c-2.306,0.206-4.605,0.425-6.918,0.549c-0.291,0.016-0.582,0.022-0.873,0.036c3.61-6.916,3.64-24.008,3.64-24.008l17.703-0.493
						c0,0,0.04,11.702,2.766,20.076C518.44,190.448,514.313,191.497,510.107,192.295z"/>
				</g>
			</g>
			<polygon style="fill:#6EAFCF;" points="489.182,207.143 492.785,197.394 514.814,207.32 528.337,197.394 532.513,214.978 
				542.024,337.536 493.235,339.714 			"/>
			<path style="fill:#FFFFFF;" d="M466.546,273.112c1.574-13.943,8.683-33.982,8.683-33.982l-1.87-32.553
				c0,0-7.115,4.736-11.725,11.451c-4.887,7.118-19.011,52.637-20.963,67.601c-1.953,14.964,1.638,14.211,6.769,13.356
				c1.356-0.226,6.158,4.447,12.484,3.897C462.012,292.935,463.781,282.901,466.546,273.112z"/>
			<g>
				<path style="fill:#313858;" d="M480.478,316.803c23.813,4.089,47.965,5.95,72.308,5.595c1.344,5.845,3.004,12.17,5.034,19.156
					c11.301,38.898-4.071,122.441-4.071,122.441c-11.664,4.188-24.149,7.165-43.311,5.969c-1.922-0.12-3.911-0.279-5.98-0.492
					c-10.227-1.024-17.335-1.29-30.169-5.902c0,0-11.044-63.537-2.917-109.826C473.89,339.399,477.722,327.991,480.478,316.803z"/>
				<path style="fill:#FFFFFF;" d="M525.035,449.27c0,0-2.663-48.531-3.538-64.708c-3.709-68.579-0.114-95.254-0.159-107.929
					c-0.032-8.845,3.58-25.067,3.58-25.067l5.489-55.022l18.541,7.124c1.411,4.267,9.771,43.78,8.616,51.637
					c-0.806,5.53,0.298,51.028,6.468,86.25c4.013,22.908,0.146,80.48-2.995,106.057C549.424,448.313,540.677,451.429,525.035,449.27
					z"/>
				<path style="fill:#FFFFFF;" d="M468.387,443.872c-1.496-19.329-6.79-68.472-2.988-90.128
					c5.724-32.605,11.281-99.464,9.332-106.137c-2.526-8.641-4.529-15.102-4.529-15.102s1.759-21.662,3.156-25.929l17.928-9.074
					l5.483-1.249l25.801,78.299l0.1,4.869c0,0,1.762,145.062-4.777,169.849C517.166,452.941,480.808,452.419,468.387,443.872z"/>
				<g>
					<path style="fill:#C0E7FA;" d="M499.897,346.193c0,0-16.589,19.263-27.184,15.275l-0.655-3.988c0,0,7.318-0.585,13.92-5.942
						c6.601-5.357,8.557-9.535,8.557-9.535L499.897,346.193z"/>
				</g>
			</g>
			<path id="XMLID_76_" style="fill:#C0E7FA;" d="M492.207,196.873l-5.587,3.167l3.188,22.833l7.398-1.962l0.043,13.548
				c14.245,7.501,24.352,37.15,24.352,37.15s-7.149-30.372-11.615-40.864C498.179,203.012,492.207,196.873,492.207,196.873z"/>
			<g>
				<polygon style="fill:#5F97B3;" points="509.378,291.713 509.85,295.507 428.926,252.604 434.836,245.38 476.473,223.003 				"/>
				<polygon style="fill:#6EAFCF;" points="509.85,295.507 463.024,320.56 428.926,252.604 476.945,226.797 				"/>
			</g>
			<path style="fill:#5F97B3;" d="M471.926,274.959c3.405,4.257,8.196,2.606,8.196,2.606s-0.752-11.33-4.893-8.198
				C471.087,272.498,471.926,274.959,471.926,274.959z"/>
			<path style="fill:#EDBDA6;" d="M469.877,260.416c1.885-3.194,0-7.683,4.8-13.848c4.8-6.166,6.6-12.845,8.4-10.776
				c1.8,2.069-1.8,10.776-1.8,10.776s3.9-8.389,6.3-7.118c2.4,1.27,1.8,5.718,1.8,5.718s2.4-2.282,3.9,1.401
				c1.5,3.682,0,5.906,0,5.906s3.3-0.953,3.6,1.906c0.3,2.859-1.5,3.494-1.5,3.494s2.7,3.812-0.6,5.083
				c-3.3,1.271-10.8,3.495-12.9,4.765c-2.1,1.271-9.189,9.362-9.189,9.362l-6.1-10.951
				C466.587,266.133,468.207,263.244,469.877,260.416z"/>
			<path style="fill:#FFFFFF;" d="M468.387,262.709c2.831,10.415,6.842,14.991,11.735,14.856c0,0,0,3.411-11.735,16.514
				c-8.959,10.004-17.105,14.957-21.594,14.957c-4.489,0-7.375-12.826-5.772-21.163c1.603-8.337,7.874-7.636,13.988-13.364
				C460.525,269.341,468.387,262.709,468.387,262.709z"/>
			
				<path style="fill:none;stroke:#C0E7FA;stroke-width:1.8425;stroke-linecap:round;stroke-linejoin:round;stroke-miterlimit:10;" d="
				M445.038,281.092c2.723-2.068,6.374-3.213,9.97-6.583c5.517-5.168,13.378-11.801,13.378-11.801
				c2.831,10.415,6.842,14.991,11.735,14.856c0,0,0,3.411-11.735,16.514c-8.959,10.004-17.105,14.957-21.594,14.957
				c-2.726,0-4.861-4.731-5.758-10.314"/>
			<path style="fill:#FFFFFF;" d="M517.542,218.66c0,0.914-0.741,1.656-1.655,1.656s-1.655-0.741-1.655-1.656
				c0-0.914,0.741-1.656,1.655-1.656S517.542,217.746,517.542,218.66z"/>
			<path style="fill:#FFFFFF;" d="M519.838,236.783c0,0.914-0.741,1.655-1.655,1.655c-0.914,0-1.656-0.741-1.656-1.655
				c0-0.914,0.741-1.656,1.656-1.656C519.097,235.128,519.838,235.869,519.838,236.783z"/>
			<g>
				<path style="fill:#EDBDA6;" d="M491.221,163.012c0.386,3.811,0.953,6.222,1.588,8.09c0.628,1.867,1.331,3.191,1.988,4.809
					c1.308,3.236,8.589,10.608,13.723,13.088c1.021,0.491,3.523,0.711,5.459,0.181c6.563-1.799,13.617-10.933,15.824-15.719
					c1.641-3.554,2.646-10.056,2.949-16.165c0.302-6.109,0.771-14.206,0.506-18.932c-0.718-12.672-9.95-15.469-19.612-14.138
					c-11.099,1.535-22.788,8.529-22.818,12.279C490.759,144.988,490.298,153.932,491.221,163.012z"/>
			</g>
			<g>
				<path style="fill:#3D2716;" d="M481.837,200.755c0.007-0.008,6.979-1.769,10.669-3.863c1.368-0.786,2.79-1.482,4.257-2.094
					c-3.561-6.434-7.378-18.217-5.096-31.619c3.387-19.893,13.165-15.726,24.86-18.689c5.307-1.345,9.771-12.222,10.158-12.837
					c3.397-5.4-1.857-11.26-1.721-11.283c-3.72-2.586-6.409-2.969-10.084-3.551c-14.531-2.313-25.482,8.065-29.081,18.196
					c-4.574,12.898-1.674,29.642-1.179,41.342C485.293,192.26,481.716,200.846,481.837,200.755z"/>
				<path style="fill:#3D2716;" d="M523.92,132.596c0.151,0.711,0.479,1.599,0.446,2.669c-0.255,8.164,7.372,14.843,7.562,15.456
					c2.692,8.43-2.919,32.426-6.125,44.047c4.801,1.973,9.43,4.486,14.802,5.684c-1.731-9.98-1.849-17.534-0.964-25.133
					c3.38-29.018,3.94-33.508-0.611-43.352c-3.009-6.54-9.953-11.831-13.522-11.657c-0.189,0.007-0.371,0.03-0.544,0.061
					c-0.136,0.023-0.28,0.045-0.408,0.083C521.365,121.535,523.111,128.868,523.92,132.596z"/>
			</g>
			<path id="XMLID_192_" style="fill:#C0E7FA;" d="M525.734,194.112l8.712,3.771l4.84,20.663l-5.948-1.009l4.002,15.067
				c-7.992,9.159-15.739,39.006-15.739,39.006s2.564-25.26,4.242-41.65C528.936,199.734,525.734,194.112,525.734,194.112z"/>
			
				<path id="XMLID_2_" style="fill:none;stroke:#C0E7FA;stroke-width:1.8425;stroke-linecap:round;stroke-linejoin:round;stroke-miterlimit:10;" d="
				M521.601,272.04c0.683,29.18,0.057,119.368,0.719,143.164"/>
			<g>
				<path style="fill:#5F97B3;" d="M514.814,207.32c0,0,8.914-7.291,9.991-15.06l4.325,3.761c0,0,3.515,19.515-1.493,21.51
					C520.65,220.316,514.814,207.32,514.814,207.32z"/>
				<path style="fill:#5F97B3;" d="M514.814,207.32c0,0-12.576-4.678-17.704-15.06l-4.325,3.761c0,0,4.684,22.736,11.072,23.066
					C512.892,219.553,514.814,207.32,514.814,207.32z"/>
			</g>
			<path style="fill:#EDBDA6;" d="M547.265,353.513c1.689,0.869,3.42,1.541,5.172,2.096c0.956-1.451,1.839-3.135,1.875-4.492
				c0.079-3.026,7.139-17.486,7.139-17.486l-11.303-4.708c-1.507,2.038-6.432,11.608-8.63,13.594
				c-1.524,1.377-2.219,4.006-2.503,5.491C541.751,349.899,544.401,352.039,547.265,353.513z"/>
			<g>
				<path style="fill:#FFFFFF;" d="M582.6,273.733c-4.945-17.279-16.174-54.789-18.916-59.572
					c-4.583-7.997-14.736-10.493-14.736-10.493l-2.214,38.006c0,0,9.221,31.588,15.756,44.199c0,0-2.585,13.492-6.496,22.924
					c-4.409,10.632-12.077,30.511-12.077,30.511c2.549,0.703,11.476,8.138,12.784,10.044c0,0,12.994-19.554,19.562-29.871
					C586.343,303.647,587.089,289.419,582.6,273.733z"/>
				
					<path style="fill:none;stroke:#C0E7FA;stroke-width:1.8425;stroke-linecap:round;stroke-linejoin:round;stroke-miterlimit:10;" d="
					M546.734,241.674c0,0,9.221,31.588,15.756,44.199c0,0-2.585,13.492-6.496,22.924c-4.409,10.632-12.077,30.511-12.077,30.511
					c2.549,0.703,11.476,8.138,12.784,10.044c0,0,12.994-19.554,19.562-29.871"/>
				
					<line style="fill:none;stroke:#C0E7FA;stroke-width:1.8425;stroke-linecap:round;stroke-linejoin:round;stroke-miterlimit:10;" x1="565.417" y1="274.382" x2="562.277" y2="286.935"/>
			</g>
			
				<path style="fill:none;stroke:#C0E7FA;stroke-width:1.8425;stroke-linecap:round;stroke-linejoin:round;stroke-miterlimit:10;" d="
				M582.6,273.733"/>
			<g>
				<path style="fill:#C0E7FA;" d="M534.651,346.193c0,0,16.589,19.263,27.184,15.275l0.655-3.988c0,0-7.318-0.585-13.92-5.942
					c-6.601-5.357-8.557-9.535-8.557-9.535L534.651,346.193z"/>
			</g>
		</g>
		<g style="clip-path:url(#SVGID_00000062914295666294936230000002202539694729904565_);">
			<path style="fill:none;stroke:#313858;stroke-width:2.3686;stroke-miterlimit:10;" d="M350.751,190.789
				c0.922-16.46,32.919-16.462,46.252-11.543c13.333,4.919,11.639,18.11,11.639,18.11"/>
			<path style="fill:#EDBDA6;" d="M422.208,195.221c-2.703,12.026-5.423,23.159-8.079,33.496h-61.407
				c-2.398-11.169-5.099-23.224-8.156-36.276c6.28-3.136,14.641-4.193,17.42-9.749c1.028-2.051,1.304-9.503,1.354-13.381
				c0.108-7.105-0.486-11.843-0.486-11.843h33.823c0,0-0.794,10.21-0.341,18.114c0.247,4.267,0.851,7.904,2.151,9.126
				C402.538,188.535,414.263,191.412,422.208,195.221z"/>
			<path style="fill:#313858;" d="M436.703,497.405c0.44-44.271-7.042-85.729-6.857-91.872c0.836-27.743-0.636-55.965-0.636-55.965
				l-48.55-17.479l-5.391,108.902c0,0,1.951,25.462,4.269,56.414H436.703z"/>
			<path style="fill:#313858;" d="M319.129,497.405h61.269c1.27-10.322,2.115-17.027,2.115-17.027l-7.341-148.289l-46.346,22.28
				C328.826,354.368,318.689,453.134,319.129,497.405z"/>
			<path style="fill:#6EAFCF;" d="M322.25,388.292c39.368-0.664,68.76,5.444,107.597,0.477c-1.311-36.258-1.297-89.08,1.834-113.112
				c4.452-34.166,7.156-61.63,7.156-61.63l-36.697-21.189l-8.619,4.573l-14.528,2.011l-17.355-0.731l-10.134-3.255l-26.659,18.591
				c0,0-6.096,27.464-1.645,61.63C326.294,299.403,323.961,353.021,322.25,388.292z"/>
			<path style="fill:#F7A281;" d="M361.985,182.692c-0.196,0.393-0.427,0.758-0.677,1.108c10.898,0.837,27.353-1.316,35.109-7.05
				c-0.029-0.385-0.059-0.77-0.082-1.168c-0.453-7.904,0.341-18.114,0.341-18.114h-33.823c0,0,0.594,4.737,0.486,11.843
				C363.289,173.189,363.013,180.641,361.985,182.692z"/>
			<path style="fill:#FFFFFF;" d="M313.425,238.364c3.384,34.515,7.97,57.286,7.441,88.994
				c-0.352,21.102-4.957,115.912-4.957,115.912s28.869-0.401,51.177-10.129c15.018-6.549,13.03-52.306,12.168-102.593
				c-0.644-37.56-28.003-75.969-30.314-101.266c-0.966-10.57,2.755-40.495,2.755-40.495l-24.834,12.392L313.425,238.364z"/>
			<path style="fill:#FFFFFF;" d="M439.959,229.758c-0.991,31.707-0.166,46.573-0.802,52.525
				c-2.199,20.569-4.154,32.105-4.05,49.866c0.219,37.507,8.312,109.387,8.312,109.387s-41.585,3.473-56.372-9.249
				c-16.577-14.262-10.55-100.573-7.793-116.338c5.816-33.247,19.178-42.268,24.012-74.991c4.242-28.712,1.106-54.037,1.106-54.037
				l30.525,13.22L439.959,229.758z"/>
			<path style="fill:#5F97B3;" d="M352.326,189.872l5.542-4.303c0,0,3.287,3.37,5.579,5.005c10.432,7.444,16.2,8.108,16.2,8.108
				s-10.664,8.534-15.631,7.854C354.882,205.286,352.326,189.872,352.326,189.872z"/>
			<path style="fill:#5F97B3;" d="M404.376,188.788l-3.539-4.089c0,0-4.47,4.552-6.719,6.158c-10.239,7.313-15.9,7.965-15.9,7.965
				s10.467,8.384,15.341,7.715C402.524,205.308,404.376,188.788,404.376,188.788z"/>
			<path style="fill:#C0E7FA;" d="M392.533,343.843c0,1.948-1.579,3.528-3.528,3.528c-1.948,0-3.528-1.579-3.528-3.528
				c0-1.948,1.579-3.528,3.528-3.528C390.953,340.316,392.533,341.895,392.533,343.843z"/>
			<circle style="fill:#C0E7FA;" cx="389.529" cy="380.55" r="3.528"/>
			<path style="fill:#C0E7FA;" d="M359.561,185.483c0,0-3.1,13.778,1.748,37.177c3.058,14.757,4.234,24.625,7.323,36.231
				c8.16,30.659,8.547,53.981,8.547,53.981l-34.334-91.403l5.892-7.258l-11.775-5.683c0,0,9.433-16.729,13.972-19.973
				C355.472,185.312,359.561,185.483,359.561,185.483z"/>
			<path style="fill:#C0E7FA;" d="M400.837,184.699c0,0,2.233,14.073-2.306,38.632c-4.539,24.559-10.019,47.348-12.451,55.783
				c-6.742,23.378-7.087,35.684-7.087,35.684s32.526-86.633,38.918-97.551l-6.482-4.933l7.388-5.673c0,0-7.024-15.358-11.563-18.602
				C402.716,184.795,400.837,184.699,400.837,184.699z"/>
			<g>
				<path style="fill:#FFFFFF;" d="M421.993,301.004c1.379-22.678,0.641-46.276,2.026-61.63
					c3.222-35.702,10.878-39.233,10.878-39.233s12.802,5.943,18.98,41.286c1.736,9.934,7.216,31.152,4.656,60.231
					c-1.928,21.9-5.826,24.829-11.863,27.524c-8.275,3.695-24.266,7.581-32.027,2.55
					C418.755,317.508,421.816,320.957,421.993,301.004z"/>
				
					<path style="fill:none;stroke:#C0E7FA;stroke-width:1.8425;stroke-linecap:round;stroke-linejoin:round;stroke-miterlimit:10;" d="
					M434.898,200.141c0,0,12.802,5.943,18.98,41.286c1.736,9.934,7.216,31.152,4.656,60.231c-1.928,21.9-5.826,24.829-11.863,27.524
					c-8.275,3.695-24.266,7.581-32.027,2.55"/>
				
					<path style="fill:none;stroke:#C0E7FA;stroke-width:1.8425;stroke-linecap:round;stroke-linejoin:round;stroke-miterlimit:10;" d="
					M424.019,239.374"/>
				<path style="fill:#FFFFFF;" d="M336.078,301.004c-1.379-22.678-0.641-46.276-2.027-61.63
					c-3.222-35.702-7.189-38.194-7.189-38.194s-15.137,6.793-20.257,32.055c-2.003,9.884-7.839,40.03-7.068,68.423
					c0.597,21.976,5.844,27.424,11.959,29.935c8.892,3.653,34.526,0.043,40.829-1.065
					C348.215,316.305,336.255,320.957,336.078,301.004z"/>
				
					<path style="fill:none;stroke:#C0E7FA;stroke-width:1.8425;stroke-linecap:round;stroke-linejoin:round;stroke-miterlimit:10;" d="
					M326.862,201.18c0,0-15.137,6.793-20.257,32.055c-2.003,9.884-7.839,40.03-7.068,68.423
					c0.597,21.976,5.844,27.424,11.959,29.935c8.892,3.653,34.526,0.043,40.829-1.065"/>
				
					<path style="fill:none;stroke:#C0E7FA;stroke-width:1.8425;stroke-linecap:round;stroke-linejoin:round;stroke-miterlimit:10;" d="
					M338.01,311.81c-3.511-23.853-2.344-26.941-2.792-51.077"/>
				
					<path style="fill:none;stroke:#C0E7FA;stroke-width:1.8425;stroke-linecap:round;stroke-linejoin:round;stroke-miterlimit:10;" d="
					M432.64,298.849c-1.317-20.01-1.793-40.075-1.425-60.125"/>
				<g>
					<path style="fill:#808194;" d="M403.845,323.894c9.402,0.779,8.883-17.016,8.883-17.016s-16.041-8.428-16.815-0.866
						C395.139,313.574,403.845,323.894,403.845,323.894z"/>
					<g>
						<path style="fill:#EDBDA6;" d="M395.076,297.206c4.864,0.019,14.24-6.349,21.899-1.617c7.659,4.731,12.507,9.84,12.507,9.84
							s-15.37-0.241-23.783,3.739c-8.412,3.98-16.694,10.682-16.694,10.682L395.076,297.206z"/>
						<path style="fill:#FFFFFF;" d="M397.689,295.195c-2.255,3.731,8.223,25.779,9.24,29.433c0,0-23.868,4.512-46.983,5.506
							c-26.78,1.151-46.281-0.04-52.44-4.243c-6.16-4.203,1.339-34.017,17.231-27.947c9.675,3.695,24.625,5.285,38.538,2.339
							C377.186,297.338,397.689,295.195,397.689,295.195z"/>
						
							<path style="fill:none;stroke:#C0E7FA;stroke-width:1.8425;stroke-linecap:round;stroke-linejoin:round;stroke-miterlimit:10;" d="
							M363.274,300.283c13.913-2.945,34.415-5.089,34.415-5.089c-2.255,3.731,8.223,25.779,9.24,29.433"/>
					</g>
				</g>
				<g>
					<g>
						<path style="fill:#EDBDA6;" d="M366.804,295.195c-4.833-0.539-16.272-7.475-24.423-3.655
							c-8.151,3.82-13.555,8.339-13.555,8.339s19.214,2.689,27.113,7.609c7.9,4.919,15.357,12.528,15.357,12.528L366.804,295.195z"
							/>
						<path style="fill:#FFFFFF;" d="M366.401,295.12c-6.235,2.147-10.258,7.743-9.331,26.786c0,0,18.716,7.006,41.564,10.648
							c26.47,4.219,41.032,0.021,47.634-3.447c6.602-3.468,8.441-32.684-5.938-30.776c-5.06,0.671-26.729,8.157-41.574,4.188
							C385.017,298.846,366.401,295.12,366.401,295.12z"/>
					</g>
				</g>
				<path style="fill:#EDBDA6;" d="M404.505,294.811c4.852-1.421,13.323-4.467,16.799-6.369c3.476-1.903,6.159-3.948,10.549-4.852
					c4.39-0.904,6.44-1.543,7.35,0.269c0.91,1.811-6.155,3.135-7.828,3.499c-1.673,0.364-4.317,3.101-4.317,3.101
					s5.643-0.872,8.776-0.995c3.133-0.123,5.266-0.597,6.973,0.544c1.707,1.141-0.472,2.548-2.727,2.572
					c-2.256,0.024-4.944,1.281-4.944,1.281s3.975,0.28,4.974,1.037c0.999,0.757-0.385,1.9-3.645,2.386
					c-3.26,0.486-5.31,1.124-5.31,1.124s-1.146,2.47-5.402,2.189C421.498,300.314,404.505,294.811,404.505,294.811z"/>
				<path style="fill:#EDBDA6;" d="M432.974,297.092c-6.382,1.053-11.759,1.913-16.268,2.608c0.022,0.165,0.044,0.33,0.066,0.495
					c0.029,0.778,0.009,1.542-0.049,2.296c3.708-0.121,7.97-0.289,10.429-0.9c3.383-0.842,4.62-1.104,5.8-1.583
					C435.008,299.172,436.377,296.531,432.974,297.092z"/>
			</g>
			
				<path style="fill:none;stroke:#C0E7FA;stroke-width:1.8425;stroke-linecap:round;stroke-linejoin:round;stroke-miterlimit:10;" d="
				M352.126,305.456c-12.571-4.365-26.516-6.299-39.886-5.753"/>
			
				<path style="fill:none;stroke:#C0E7FA;stroke-width:1.8425;stroke-linecap:round;stroke-linejoin:round;stroke-miterlimit:10;" d="
				M317.144,332.832c22.42,0.994,44.046-2.724,64.322-4.25"/>
			
				<path style="fill:none;stroke:#C0E7FA;stroke-width:1.8425;stroke-linecap:round;stroke-linejoin:round;stroke-miterlimit:10;" d="
				M447.013,329.026c-14.373,7.211-35.41,6.202-48.605,3.662c-9.005-1.733-17.386-4.565-26.087-6.85
				c-5.462-1.434-9.259-2.33-14.952-3.328c0,0-2.552-15.667,3.125-22.899"/>
			
				<path style="fill:none;stroke:#C0E7FA;stroke-width:1.8425;stroke-linecap:round;stroke-linejoin:round;stroke-miterlimit:10;" d="
				M366.804,295.195c9.028,1.402,36.017,11.65,52.506,8.317"/>
			<g>
				<g>
					<path style="fill:#EDBDA6;" d="M399.24,146.414c0,0-0.411-8.909,7.055-8.681c4.764,0.146,5.133,4.513,1.421,10.147
						c-1.563,2.372-1.72,7.738-3.661,9.462c-2.359,2.097-4.334-1.139-5.051-2.614C397.817,152.29,399.24,146.414,399.24,146.414z"/>
				</g>
				<path style="fill:#E7A699;" d="M403.606,142.292c2.639-1.466,5.572-1.173,3.812,1.759c-1.76,2.932-2.932,3.812-2.786,7.038
					c0.135,2.962-2.493,3.079-2.493,3.079L403.606,142.292z"/>
				<g>
					<path style="fill:#EDBDA6;" d="M359.023,146.414c0,0,0.411-8.909-7.054-8.681c-4.765,0.146-5.134,4.513-1.422,10.147
						c1.563,2.372,1.721,7.738,3.661,9.462c2.359,2.097,4.334-1.139,5.051-2.614C360.447,152.29,359.023,146.414,359.023,146.414z"
						/>
				</g>
				<path style="fill:#E7A699;" d="M355.471,142.292c-2.639-1.466-5.572-1.173-3.812,1.759c1.759,2.932,2.932,3.812,2.786,7.038
					c-0.135,2.962,2.492,3.079,2.492,3.079L355.471,142.292z"/>
				<path style="fill:#EDBDA6;" d="M406.806,124.608c-0.183,2.89-0.756,4.769-1.507,9.064c-0.177,1.034-0.372,2.216-0.567,3.587
					c-1.542,10.695-3.498,25.237-4.343,27.405c-1.395,3.598-9.034,9.425-12.662,11.558c-3.628,2.133-12.751,1.696-16.38-0.437
					c-3.628-2.133-11.835-7.522-13.23-11.121c-0.857-2.21-2.883-17.171-4.437-28.044c-0.177-1.241-0.349-2.311-0.514-3.256
					c-0.732-4.237-1.294-5.909-1.471-8.757c-0.556-9.035,9.613-22.176,27.558-22.176
					C400.478,102.432,407.367,115.573,406.806,124.608z"/>
				<path style="fill:#E1D2E3;" d="M358.989,117.807c0,0,14.662-3.812,36.068-2.639l5.751-3.852c0,0-10.154-5.756-23.42-5.658
					C364.122,105.756,358.989,117.807,358.989,117.807z"/>
				<path style="fill:#422129;" d="M405.993,131.356c-0.291,0.813-0.556,1.542-0.788,2.175l0.095,0.142
					c-0.177,1.034-0.372,2.216-0.567,3.587c-0.375,2.603-0.775,5.435-1.178,8.26l-3.012,3.698
					c1.397-4.233,2.312-12.948,2.761-15.782l-0.016-0.034c-2.015-4.381-3.108-9.13-3.211-13.951l-1.117-7.21l-4.812,0.213
					c-0.692-0.709-11.133-0.328-20.203,0.369c-11.505,0.886-14.955,4.985-14.955,4.985c-0.67,4.321-1.532,10.893-3.726,14.675
					l-0.125,0.215l-0.169,0.292c0.536,2.725,0.772,10.836,2.389,15.304l-2.416-2.773c-0.434-3.046-0.864-6.107-1.263-8.898
					c-0.057-0.397-0.112-0.75-0.167-1.114l-0.016,0.027c0,0-0.485-1.649-1.158-3.989c-0.496-1.725-1.724-10.559-2.02-11.806
					c-0.095-0.39-0.177-0.768-0.248-1.134c-1.056-5.538,1.198-26.113,32.891-23.61c0.379,0.03,0.751,0.077,1.123,0.13
					c10.447,1.377,15.238,6.299,15.238,6.299l3.575,6.303c5.939,0.886,6.576,4.325,5.211,11.097
					C408.049,119.118,406.59,129.683,405.993,131.356z"/>
			</g>
			<g>
				<g>
					<path style="fill:#313858;" d="M349.157,192.639l0.178,1.875l-0.089-0.938l0.09,0.938c-0.087,0.009-11.533,0.551-16.492,7.647
						c-5.393,7.719-13.922,29.75-11.709,34.293c2.448,5.023,13.088,9.602,13.195,9.648l-0.738,1.733
						c-0.464-0.198-11.398-4.908-14.15-10.556c-2.895-5.941,6.991-29.231,11.858-36.197
						C336.77,193.256,348.766,192.676,349.157,192.639z"/>
				</g>
				<g>
					
						<path style="fill:#313858;stroke:#313858;stroke-width:0.5539;stroke-linecap:round;stroke-linejoin:round;stroke-miterlimit:10;" d="
						M325.607,216.632c2.305-5.767,5.033-11.314,7.237-14.47c4.959-7.097,16.405-7.639,16.492-7.647l-0.09-0.938l-0.089-0.938
						c-0.391,0.037-12.387,0.617-17.856,8.444c-2.054,2.94-5.001,8.79-7.505,15.015C324.401,216.272,325.005,216.45,325.607,216.632
						z"/>
				</g>
				<path style="fill:#313858;" d="M333.453,244.422l2.747-0.038c1.529-0.021,2.716,1.326,2.504,2.84l0,0
					c-0.212,1.514-1.725,2.482-3.189,2.041l-2.631-0.792c-0.212-0.064-0.345-0.273-0.315-0.492l0.445-3.173
					C333.046,244.589,333.232,244.425,333.453,244.422z"/>
				<g>
					<path style="fill:#313858;" d="M350.955,192.891l-0.688,1.754l0.344-0.877l-0.345,0.877
						c0.081,0.032,10.935,3.704,13.749,11.892c3.06,8.905,5.195,32.433,1.817,36.191c-3.736,4.155-15.226,5.628-15.341,5.643
						l0.233,1.869c0.501-0.062,12.309-1.58,16.509-6.253c4.419-4.915,1.325-30.026-1.436-38.063
						C362.694,196.894,351.321,193.035,350.955,192.891z"/>
				</g>
				<g>
					
						<path style="fill:#313858;stroke:#313858;stroke-width:0.5539;stroke-linecap:round;stroke-linejoin:round;stroke-miterlimit:10;" d="
						M366.991,222.44c-0.628-6.178-1.724-12.262-2.975-15.903c-2.814-8.188-13.668-11.86-13.749-11.892l0.345-0.877l0.344-0.877
						c0.366,0.143,11.739,4.003,14.842,13.033c1.166,3.392,2.388,9.827,3.082,16.501C368.25,222.426,367.62,222.431,366.991,222.44z
						"/>
				</g>
				<path style="fill:#313858;" d="M352.738,247.128l-2.554-0.769c-1.074-0.323-2.365,0.231-2.87,1.232l0,0
					c-0.845,1.675,0.389,3.65,2.266,3.624l2.589-0.036c0.221-0.003,0.407-0.167,0.438-0.386l0.445-3.173
					C353.083,247.401,352.95,247.192,352.738,247.128z"/>
				<path style="fill:#313858;" d="M347.16,195.05l2.406-0.006c0.065,0,0.13,0.009,0.193,0.027l2.312,0.668
					c0.331,0.096,0.681-0.068,0.821-0.382l0.364-0.82c0.105-0.236,0.069-0.511-0.093-0.712l-0.105-0.13
					c-0.546-0.678-0.864-1.511-0.908-2.38l-0.137-2.7c-0.018-0.347-0.291-0.627-0.638-0.652l-0.664-0.048
					c-0.03-0.002-0.061-0.007-0.091-0.013l-0.652-0.136c-0.34-0.071-0.68,0.122-0.793,0.451l-0.875,2.558
					c-0.282,0.824-0.816,1.537-1.528,2.038l-0.136,0.096c-0.211,0.149-0.321,0.403-0.286,0.658l0.124,0.889
					C346.523,194.798,346.815,195.051,347.16,195.05z"/>
			</g>
			<g>
				<path style="opacity:0.3;fill:#FFFFFF;" d="M398.32,139.729c-0.722,3.198-3.541,5.788-7.701,5.79
					c-5.721,0.003-5.879-3.724-6.419-5.923c-0.54-2.199-0.481-3.983-0.289-4.458c0.522-1.291,2.025-1.321,6.535-1.412
					c4.51-0.091,6.994-0.151,7.722,0.514C398.897,134.906,399.066,136.423,398.32,139.729z"/>
				<g>
					<path style="opacity:0.3;fill:#FFFFFF;" d="M360.243,134.241c0.728-0.664,3.213-0.605,7.722-0.514
						c4.51,0.09,6.013,0.12,6.535,1.412c0.192,0.475,0.251,2.259-0.289,4.458c-0.539,2.199-0.697,5.926-6.419,5.923
						c-4.16-0.002-6.979-2.592-7.701-5.79C359.346,136.423,359.515,134.906,360.243,134.241z"/>
					<path style="fill:#133A50;" d="M403.254,133.512c-0.097-0.987-4.992-1.428-8.505-1.496c-3.513-0.068-9.45-0.249-11.559,0.476
						c-1.87,0.643-1.562,1.336-3.929,1.336c-2.073,0-2.171-0.693-4.04-1.336c-2.108-0.725-8.046-0.544-11.558-0.476
						c-3.513,0.068-8.408,0.51-8.505,1.496c-0.052,0.531,0.017,1.282,0.195,1.911c0.152,0.54,1.904,0.833,2.21,0.978
						c0.662,0.316,0.455,2.479,1.495,4.834c1.343,3.04,4.482,5.429,10.824,4.898c5.821-0.488,5.708-6.645,6.433-8.301
						c0.62-1.416,0.3-1.876,2.938-1.876c2.591,0,2.224,0.459,2.844,1.876c0.725,1.656,0.611,7.813,6.432,8.301
						c6.342,0.531,9.339-1.821,10.682-4.861c1.04-2.354,0.975-4.555,1.637-4.87c0.306-0.146,2.058-0.438,2.21-0.978
						C403.237,134.794,403.306,134.044,403.254,133.512z M374.212,139.597c-0.54,2.199-0.698,5.926-6.419,5.923
						c-4.16-0.002-6.979-2.592-7.701-5.79c-0.746-3.306-0.578-4.823,0.151-5.488c0.728-0.664,3.213-0.605,7.722-0.514
						c4.51,0.09,6.013,0.12,6.535,1.412C374.692,135.614,374.751,137.398,374.212,139.597z M398.32,139.729
						c-0.722,3.198-3.541,5.788-7.701,5.79c-5.721,0.003-5.879-3.724-6.419-5.923c-0.54-2.199-0.48-3.983-0.289-4.458
						c0.522-1.291,2.025-1.321,6.535-1.412c4.51-0.091,6.994-0.151,7.722,0.514C398.897,134.906,399.066,136.423,398.32,139.729z"/>
				</g>
			</g>
			<path style="fill:none;stroke:#313858;stroke-width:2.3686;stroke-miterlimit:10;" d="M406.301,186.707
				c9.374,23.392-4.896,55.687-4.896,55.687"/>
			<circle style="fill:#FFFFFF;stroke:#313858;stroke-width:2.2804;stroke-miterlimit:10;" cx="399.629" cy="246.878" r="6.598"/>
			
				<line style="fill:none;stroke:#C0E7FA;stroke-width:1.8425;stroke-linecap:round;stroke-linejoin:round;stroke-miterlimit:10;" x1="379.255" y1="327.759" x2="379.255" y2="400.606"/>
		</g>
	</g>
</g>
<g id="TEXTS">
	<g>
		<text x="32.33%" text-anchor="middle" transform="matrix(1 0 0 1 143.1168 78.5473)" style=" font-weight:700; fill:#133B52; font-family:'Poppins-Bold'; font-size:35.5353px;">DOCTOR AI</text>
	</g>
</g>
</svg>
